<svg xmlns="http://www.w3.org/2000/svg" viewBox="0 0 1949 1949"><defs><style>.cls-1{fill:none;}.cls-2{fill:#fff;}</style></defs><title>map-land-filled</title><g id="Layer_2" data-name="Layer 2"><g id="Layer_3" data-name="Layer 3"><rect class="cls-1" width="1949" height="1949"/><path class="cls-2" d="M1240.5,309.5c15,0,11.65-7.24,22-7,10.94.25,12,7.69,25,12,15.67,5.21,34,1,46-7,10.27-6.83,7.76-11,22-22,9.77-7.56,18.13-14,28-13,9.58,1,10.63,8,25,16,6,3.36,18.24,10.13,32,9,15.94-1.31,28.09-12.73,39-23,13.78-13,16.41-21.43,26-22,7.42-.44,10,4.38,21,4,9.78-.34,10.81-4.26,17-3,9.79,2,8.76,12.12,20,16,8.15,2.81,11.77-1.44,19,3,4.14,2.54,5.53,5.52,10,6,3.78.4,6.18-1,10,0a92.16,92.16,0,0,0,13,2c11,1,7.84-3.14,20-2,4.85.46,3.77,1.84,18,6,8.76,2.56,8.26,1.77,11,3,9.23,4.14,13.93,12.64,18,20,4.82,8.72,7.65,13.84,8,21,.86,17.52-9,23-9,37,0,4.6.4,2.82,8,18,3.53,7.06,4,8.91,7,14,5,8.55,7.57,12.82,12,15,6.18,3,9.24-.55,20,1a48.49,48.49,0,0,1,17,6c3.6,2.12,14.34,9.17,19,22,5.16,14.18,0,21,4,33,3.22,9.65,13,13,13,13,7,4.44,12,4.23,13,8,1.09,4.11-4.39,6.27-6,15-.84,4.55.52,4.69,0,10-1,10.37-6.35,11.34-6,18,.38,7.22,6.75,8.1,9,18,1.24,5.47-.38,6.63,0,12,.64,9,5.64,12.66,21,33,9,12,8.71,16.2,10,20,1.74,5.11,4.21,10.36,2,18-3.94,13.64-16,13-20,27-2.15,7.47,1.27,9.9-2,21-1.15,3.9-2.6,7.09-1,10,1.72,3.13,4.87,2.14,9,6,3.66,3.41,2.25,5.17,6,9,4.3,4.39,7.73,3.68,9,7,1.09,2.85-.94,4.67-2,9-2,8,2.55,11.68,3,20,.4,7.31-2.78,10.19-6,19a61.78,61.78,0,0,0-3,30c3,21.51,16.94,25,22,51,1.07,5.51,1.92,7.59,4,16,2.46,10,4.47,20.11,10,28,8.21,11.73,14,8,18,17,4.28,9.63-1.87,14.22,1,23,2.76,8.46,7.39,9.29,9,17s-10.5,12.68-9,22c1,6.41,7.2,6.68,8,13,1.06,8.36-9.31,11.06-10,20-.86,11.17,14.81,13.35,16,27,.8,9.23-6,12-6,27,0,7,1.49,6.7,1,12-1.29,13.89-12.14,23.41-14,25-8.2,7-12,4.62-18,12-3.41,4.17-2.93,5.8-8,13-5.78,8.2-7.22,7.25-10,12-5.65,9.66-.21,14.46-5,27-4,10.35-8.42,9-9,16-.77,9.21,5,12.33,6,26,.45,6.06-.9,8.14,2,12,6,8,9.85,10.08,11,17,1,6-3,9-10,29-8.89,25.4-19.2,35.63-25,39-7.78,4.52-12,9-20,21-5.78,8.67-3.83,12.65-7,16-3.93,4.15-9,5-18,3-4.68-1-11.78-2.52-15,0-5.19,4-17,11.49-19,32-1.94,19.75-2.91,29.63,1,39,2.31,5.54,5.54,15,16,28,5.15,6.39,25,19,33,21,28.79,7.2,23.2,7.42,25,18,1.48,8.67-8.38,15.3-15,33-4.31,11.51-2.91,10.43-6,27-3.16,17-5,20-4,29,1.07,9.62,10.67,9.21,12,17,1.09,6.34-5.34,8.66-12,22-6.12,12.26-2.83,14.55-8,23-6.44,10.52-12.13,7.89-25,20s-10.92,18.12-23,27c-8.18,6-16.48,8.48-21,13-6,6-6,11-7,24-1.28,16.58,2,19.43-1,25-7,13-8,1-18,22-7.41,15.56-25.83,13.16-29,29-3,15-19,22-29,22-14.29,0-24.2-6.48-43,0-11.82,4.08-14,8-21,15-7.66,7.66-17,19-31,19-10,0-20-4-28-14-24.64-30.8-35-18-48-20-11.5-1.77-18.63-12.24-33-21-3.66-2.23-10.92-9.52-28-11-16-1.38-17.64,3.9-28,1-16.59-4.65-16-15.55-28-16-9.51-.36-7.81,0-28,8-11.07,4.41-14.22,10.22-19,14-10.57,8.36-7.91,16.82-18,28-8.34,9.24-12,6.21-19,14-13.82,15.49,4.16,37.63-9,49-5.19,4.48-7.5,2.5-20,10-10,6-12.6,12.3-21,14-10.38,2.1-13.15-3.79-25-3-10.14.67-13.26,13.1-23,10-22-7-61.39-1.21-74-8-13-7-19.51,4.91-34,3-12.56-1.66-9.31-5.86-24-9-15.82-3.38-32.23-1.94-43-1-12.67,1.11-15.94,1.73-20-2-4.87-4.47-5.93-13.08-8-24-2.14-11.26-7-20.69-16-27-17.62-12.28-23,4-39-2-6-2.23-12.27-1.92-16-26-3.28-21.19,0-37-6-44-9.62-11.22-26-11-40-8-43,9.22-43.47,43-78,48-11.76,1.72-22.49,1-45,2-35.58,1.52-45,14-64-1-13.46-10.63-14-15-12-34,1.32-12.52-15.35-8.38-19-16-3.88-8.1-.16-18.17,8-35,9.86-20.35,15.89-23.7,14-31-3-11.47-18.89-11.07-21-23-1.51-8.56,5.53-12.61,3-21-2.65-8.82-11.94-12.06-12-18,0-5.46,6-11,20-17,6.25-2.68,7-7.45,8-11,2.67-9.24-4.12-13.81-2-23,3-13,12.51-15.44,11-23-2-10-20.57-23.1-29-29-10-7,1-34-3-41-5.78-10.11-19-2-29-10-5.54-4.43-20.15-20.37-29-24a72.66,72.66,0,0,0-19-5c-18.53-2-25.76,6.29-40,5-19.82-1.8-24.15-15.91-38-12-7.34,2.07-5.35,5.3-13,5-7.4-.29-7.57-4.32-15-6-12.45-2.82-19,8.3-29,6s-13.31-6.92-18-20c-6-16.82-2.39-27.49-9-35s-15.06-11.24-26-17c-19-10-31.37-20.52-46-38-4.75-5.68-5.55-9.14-27-43-26.13-41.24-29.76-42.23-34-46-10.53-9.37-29.71-24.65-53-26-10.36-.6-16.11-.23-23-6-7.83-6.56-8.92-8.58-18-15-7.07-5-9.77-6.6-15-12s-1.17-10-7-18c-8-11-11.91-13.08-16-23-2.48-6-2.39-8.57,1-24,5.67-25.79,8.5-38.69,4-49-5.53-12.67-15.9-13-16-23s6.24-12.18,6-24c-.14-6.67.56-7.44-2-18-3-12.58,1.19-14.79-2-25-3-9.71-7.54-9.88-9-19-.42-2.63-1.85-11.54,3-17,5.36-6,12.73-1.48,22-5,15.48-5.88,24.2-29.7,24-48-.17-15.92-7.06-25.6-2-30,5.51-4.79,17.2,3.62,23-2,3.24-3.13,4.49-11.38,2-15-11-16-15.36-22.58-15-34,.46-14.54,7.06-18,21-30,7-6,.83-15,4-22,3.84-8.43,9.44-9.36,9-15-.41-5.29-15.6-35.53-10-43,6-8,16-5,21-11a171.38,171.38,0,0,0,12-16c7.62-11.11,7.27-24.2,7-34,0-1.33-1-8.56-3-23-2.13-15.59-2.68-18.58-1-23,3.07-8.06,8.32-7.12,12-16,.48-1.17,4.09-10.23,1-20-2.83-8.94-8.58-10-9-17-.34-5.64,3.26-6.69,6-14,5.13-13.71,0-30.19-6-40-4.18-6.82-6.42-6.57-8-12-2.43-8.34-.35-20,7-26,5.7-4.68,9.37-5.93,10-11,1-8,1.42-4.59,0-15-1.37-10,.19-24.14,8-29,2.94-1.83,3.95-.6,8-3,7.18-4.25,6.5-9.59,11-11,5.24-1.64,7.84,5.05,18,7,2.25.43,9.73,1.87,16-2,7.16-4.42,11.05-14.73,9-23-2.84-11.48-12.11-10.85-15-23-1.11-4.67-2.22-4.44-2-20,.12-8.33.15-12.56-1-16-2.9-8.63-7.93-8.22-12-17-4.45-9.58-2.62-19-2-22,1-4.94,2.93-13.1,10-17,7.27-4,14.38,1.76,20-2,6.48-4.33,1.53-14.19,9-27,1.93-3.3,5.13-11.23,13-12,6.56-.64,9.82,3.88,14,2,4.63-2.09,2.82-8.42,8-15s14.93-8.16,23-6,8.26,5.8,17,9c2.6,1,6.41,1.86,23-1,18.25-3.14,27.38-4.72,34-9,9.55-6.18,7.56-10,19-18,7-4.85,15.05-10.48,25-10,12.12.58,13.11,9.56,26,11s16.39-7.16,27-4c8.35,2.49,7.46,8.19,19,13,3.26,1.36,10.41,4.24,19,3,8.32-1.2,9.06-5,16-6,9.55-1.39,11.77,5.25,24,8,16.75,3.76,24.41-6.05,33,0,6.17,4.34,2.71,9.76,10,18,7.12,8.05,20,13.74,29,10,3.93-1.64,7.34-5.17,12-10,5.14-5.33,5.22-7,8-8,8.07-2.93,18.25,7.24,19,8,5.88,6,7.73,12.95,9,18,3.08,12.2,2.23,13.46,5,21,3.84,10.46,20.2,19.6,32,20,9.87.33,8-.5,19-1,10.22-.46,12.54,2.54,13,10,.47,7.63,9.06,16.91,13,18,3.7,1,5.25-2.34,15-6,5.51-2.07,8.21-3.45,13-3,8.72.83,14.23,7.1,15,8,4.5,5.28,3.47,8,7,14,5.35,9.07,17.83,16.08,28,14,7.28-1.49,12.42-7.62,18-7,6.15.68,6.52,8.52,14,16,7,7,8.45,7.34,23,7,8.91-.21,11.09-2,25-5,10.45-2.26,16.74-2.81,23-5,20-7,25.44-14.63,50-31,6-4,13.68-10.49,29-8,37,6,47,41,74,44,21.64,2.4,41.49-33.15,64-29,7.28,1.34,6.78,4.42,18,10C1219.19,311.83,1229.55,309.5,1240.5,309.5Z"/></g></g></svg>